<svg xmlns="http://www.w3.org/2000/svg" width="140" height="25">
  <g fill="none" fill-rule="evenodd">
    <path fill="#5074FB" d="M45.9104 12.3283s0 .409-.2038.6815c-.2716.3407-5.0257 6.4742-7.267 9.4046-2.241 2.9986-6.7913 1.363-6.7913 1.363s1.494-.886 2.445-2.0445c2.5127-3.203 7.3347-9.473 7.3347-9.473s-4.822-6.134-7.3348-9.405c-.883-1.158-2.445-2.044-2.445-2.044s4.5504-1.568 6.7915 1.363c2.2412 2.998 6.9953 9.132 7.199 9.472.2717.2726.2717.6815.2717.6815M0 12.3282s0 .409.2037.6816c.2038.2724 5.0257 6.474 7.199 9.4044 2.1733 2.9304 6.7915 1.363 6.7915 1.363s-1.494-.886-2.445-2.0445c-2.5128-3.203-7.3347-9.405-7.3347-9.405s4.822-6.202 7.3348-9.473c.8827-1.158 2.445-2.044 2.445-2.044S9.6438-.7568 7.4026 2.174C5.1616 5.1044.4754 11.306.2716 11.6468.068 11.9875 0 12.3283 0 12.3283"/>
    <path fill="#3E3E3E" d="M22.9552 4.5592c-4.1428 0-7.6065 3.4757-7.6065 7.769 0 4.2935 3.3958 7.769 7.6065 7.769 4.2107 0 7.6064-3.4755 7.6064-7.769 0-4.2933-3.4636-7.769-7.6064-7.769"/>
    <path fill="#444" d="M63.4392 18.826c3.6408 0 5.6785-1.8203 5.6785-4.2113 0-5.298-7.7705-3.668-7.7705-5.624 0-.7337.815-1.3043 2.065-1.3043 1.603 0 3.0972.6793 3.8852 1.5215l1.3856-2.364c-1.304-1.033-3.0702-1.794-5.298-1.794-3.4507 0-5.3797 1.929-5.3797 4.1293 0 5.1623 7.7977 3.3963 7.7977 5.57 0 .815-.7064 1.413-2.2007 1.413-1.6302 0-3.5865-.8967-4.5374-1.793l-1.495 2.418c1.385 1.277 3.586 2.0376 5.868 2.0376zm14.237-3.0702c-1.9562 0-3.3147-1.5486-3.3147-3.831 0-2.255 1.3585-3.8037 3.3147-3.8037 1.114 0 2.391.653 2.9615 1.495v4.646c-.5705.815-1.8475 1.495-2.9615 1.495zm-1.0868 3.0702c1.5487 0 2.9887-.652 4.0483-2.0105v6.6837h3.4778V5.377h-3.4778v1.6573c-1.0052-1.277-2.4452-1.9834-4.0483-1.9834-3.369 0-5.8143 2.499-5.8143 6.874 0 4.374 2.446 6.901 5.815 6.901zm14.373-.326V9.8328c.5704-.8422 2.092-1.4943 3.233-1.4943.3804 0 .7065.0272.951.0815V5.051c-1.6302 0-3.2604.951-4.184 2.1192V5.377h-3.4507V18.5h3.4506zm12.498.326c2.0377 0 4.1026-.625 5.4068-1.8203l-1.5215-2.228c-.8423.815-2.391 1.3042-3.505 1.3042-2.228 0-3.5592-1.386-3.7765-3.043h9.754v-.761c0-4.293-2.6627-7.227-6.5752-7.227-3.994 0-6.7924 3.07-6.7924 6.874 0 4.211 3.0158 6.901 7.0098 6.901zm3.0158-8.1237h-6.4664c.163-1.3042 1.0868-2.9072 3.2332-2.9072 2.2823 0 3.1517 1.658 3.2332 2.908zm12.009 8.1237c2.0378 0 4.1027-.625 5.407-1.8203l-1.5216-2.228c-.8423.815-2.391 1.3042-3.505 1.3042-2.228 0-3.5592-1.386-3.7765-3.043h9.754v-.761c0-4.293-2.662-7.227-6.575-7.227-3.994 0-6.792 3.07-6.792 6.874 0 4.211 3.016 6.901 7.01 6.901zm3.016-8.1237h-6.4665c.163-1.3042 1.0868-2.9072 3.2332-2.9072 2.282 0 3.151 1.658 3.233 2.908zM139.6505 18.5V9.235c0-2.554-1.3857-4.184-4.2657-4.184-2.1465 0-3.7495 1.0324-4.5918 2.0377V5.377h-3.4506V18.5h3.4506V9.6698c.5706-.788 1.6302-1.5487 2.9887-1.5487 1.467 0 2.418.625 2.418 2.446V18.5h3.4506z"/>
  </g>
</svg>
